<svg width="97" height="97" viewBox="0 0 97 97" fill="none" xmlns="http://www.w3.org/2000/svg">
<rect width="97" height="97" fill="#E5E5E5"/>
<rect width="1440" height="5053" transform="translate(-1223 -3442)" fill="white"/>
<rect width="1440" height="900" transform="translate(-1223 -270)" fill="#171836"/>
<g clip-path="url(#clip0_0_1)">
<rect x="-275" width="372" height="515" rx="20" fill="url(#paint0_linear_0_1)"/>
<path d="M107 -117L214 -10.0001L107 96.9999C107 96.9999 88.5 53.5 58 38C27.5 22.5 5.90434e-05 -10.0001 5.90434e-05 -10.0001L107 -117Z" fill="#F5453D"/>
<path d="M89.4829 -122L194.258 -42.5009L108.862 70.0464C108.862 70.0464 65.3413 41.9968 77.3694 8.85935C89.3975 -24.2781 89.4829 -122 89.4829 -122Z" fill="#F54F47"/>
<path d="M45.3656 9.21933C34.2311 2.74691 29.0001 8.49859 23.4244 1.96651C15.3203 -7.5277 25.043 -15.393 26.3918 -29.8593C33.3767 -35.6268 47.5337 -28.4045 53.3267 -21.3888C66.5002 -12.6801 56.5001 15.6917 45.3656 9.21933Z" fill="#F65D55"/>
<path d="M47.4218 14.411L48.753 15.2638L50.3437 12.7807L51.7503 13.6817C53.4475 14.7689 55.0117 14.3337 55.9174 12.9199C56.8161 11.5169 56.5751 9.91009 54.8851 8.82747L52.1292 7.06217L47.4218 14.411ZM51.0447 11.6862L52.7479 9.02731L53.968 9.80882C54.9655 10.4478 55.0621 11.2688 54.561 12.051C54.0599 12.8333 53.2623 13.1067 52.2719 12.4723L51.0447 11.6862ZM56.1235 20.1369C57.7382 21.1713 59.4931 20.6912 60.585 18.9867C61.6791 17.2787 61.3838 15.4802 59.769 14.4459C58.1543 13.4115 56.3971 13.8952 55.303 15.6032C54.2112 17.3077 54.5088 19.1025 56.1235 20.1369ZM56.7973 19.1009C55.9038 18.5285 55.9763 17.4515 56.6222 16.4432C57.2681 15.4349 58.223 14.908 59.1165 15.4803C59.9957 16.0435 59.9162 17.1312 59.2704 18.1396C58.6245 19.1479 57.6764 19.664 56.7973 19.1009ZM58.612 24.4941L59.9109 25.3262L61.7912 22.3909L61.845 22.4254C61.7921 22.9583 61.8582 23.7952 62.8055 24.402C64.1045 25.2341 65.7366 24.8272 66.8997 23.0115C68.0765 21.1743 67.7144 19.5355 66.4406 18.7195C65.4681 18.0966 64.688 18.4217 64.2355 18.6936L64.1601 18.6453L64.744 17.7339L63.4665 16.9156L58.612 24.4941ZM62.9751 20.4874C63.6601 19.4181 64.563 19.0198 65.3991 19.5553C66.2638 20.1093 66.2376 21.1299 65.5802 22.1562C64.9182 23.1896 63.9834 23.6535 63.1258 23.1042C62.2969 22.5732 62.2901 21.5567 62.9751 20.4874ZM71.2492 26.405C70.7113 27.2446 69.8454 27.277 69.2713 26.9092C68.6469 26.5093 68.5134 25.8013 68.9616 25.1016L71.0809 21.7932L69.7819 20.9611L67.5339 24.4704C66.6858 25.7945 66.9589 27.0272 68.0426 27.7213C68.8679 28.25 69.7273 28.1882 70.3738 27.7319L70.4313 27.7687L69.8038 28.7483L71.0632 29.5551L74.5938 24.0435L73.2949 23.2114L71.2492 26.405ZM78.4054 23.894L77.1064 23.0619L72.399 30.4107L73.6979 31.2428L78.4054 23.894ZM76.5485 33.2256C77.4132 33.7796 78.1897 33.7051 78.723 33.3939L78.7661 33.4215L78.2811 34.1786L79.5298 34.9785L81.8927 31.2898C82.826 29.8329 81.9187 28.6343 80.8673 27.9608C79.7083 27.2184 78.4874 27.1651 77.5567 27.9859L78.6592 28.9351C79.0298 28.641 79.6026 28.5526 80.2378 28.9594C80.8406 29.3456 80.973 29.8656 80.626 30.4075L80.6122 30.429C80.3731 30.8022 79.9705 30.5696 78.9314 30.0507C77.7885 29.4806 76.5613 29.1448 75.766 30.3864C75.0718 31.47 75.4971 32.5522 76.5485 33.2256ZM77.4972 32.4872C76.9553 32.1401 76.7264 31.6443 77.0321 31.1671C77.3516 30.6683 77.9191 30.7383 78.5533 31.0281C78.9241 31.1998 79.661 31.5504 79.917 31.5221L79.5009 32.1716C79.1079 32.7852 78.2794 32.9883 77.4972 32.4872ZM80.8359 35.8152L82.1349 36.6473L84.2105 33.4071C84.6587 32.7073 85.5034 32.55 86.2175 33.0075C86.4364 33.1477 86.6838 33.3618 86.772 33.469L87.5375 32.2741C87.4328 32.1767 87.2375 32.0313 87.094 31.9394C86.4624 31.5348 85.7051 31.5558 85.095 32.0658L85.0376 32.029L85.626 31.1104L84.3665 30.3036L80.8359 35.8152Z" fill="white" fill-opacity="0.8"/>
</g>
<rect x="-273.5" y="1.5" width="369" height="512" rx="18.5" stroke="url(#paint1_linear_0_1)" stroke-width="3"/>
<defs>
<linearGradient id="paint0_linear_0_1" x1="-89" y1="-274.929" x2="-89" y2="515" gradientUnits="userSpaceOnUse">
<stop stop-color="#202246"/>
<stop offset="1" stop-color="#282B57" stop-opacity="0.31"/>
</linearGradient>
<linearGradient id="paint1_linear_0_1" x1="-89" y1="0" x2="-89" y2="515" gradientUnits="userSpaceOnUse">
<stop stop-color="#323465" stop-opacity="0.5"/>
<stop offset="1" stop-color="#323465" stop-opacity="0.15"/>
</linearGradient>
<clipPath id="clip0_0_1">
<rect x="-275" width="372" height="515" rx="20" fill="white"/>
</clipPath>
</defs>
</svg>
